<?xml version="1.0" encoding="utf-8"?>
<!-- Svg Vector Icons : http://www.onlinewebfonts.com/icon -->
<!DOCTYPE svg PUBLIC "-//W3C//DTD SVG 1.1//EN" "http://www.w3.org/Graphics/SVG/1.1/DTD/svg11.dtd">
<svg version="1.1" xmlns="http://www.w3.org/2000/svg" xmlns:xlink="http://www.w3.org/1999/xlink" x="0px" y="0px" viewBox="0 0 256 256" enable-background="new 0 0 256 256" xml:space="preserve">
<metadata> Svg Vector Icons : http://www.onlinewebfonts.com/icon </metadata>
<g><g><g><path fill="#000000" d="M151.3,18.4l-5.8,5.8l6.1,6.1l6.1,6.1L88.1,106c-50,50-70.1,70.5-71.6,72.8c-10.1,15.9-8.1,37.4,4.8,51.2c6,6.3,13.8,10.9,22,12.6c4.6,1,13.7,1,18-0.1c5-1.2,9.7-3.2,13.9-5.9c3-1.8,18.5-17.2,72.9-71.5l69.2-69.1l6,5.9l5.9,6l5.8-5.8c3.2-3.2,5.8-6,5.8-6.3c0-0.7-82.5-83.2-83.2-83.2C157.3,12.6,154.4,15.3,151.3,18.4z M187.6,66.4l17.8,17.8l-69,69c-52.4,52.3-69.7,69.2-71.7,70.3c-4.6,2.4-8.3,3.2-13.9,3c-4.5-0.2-5.5-0.4-9-2.1c-4.9-2.3-8-5-10.7-9.1c-5.1-7.9-5.5-17.1-1.1-25.9c1.1-2.1,15.9-17.3,70.3-71.7c38-38,69.1-69,69.3-69C169.7,48.5,177.8,56.6,187.6,66.4z"/><path fill="#000000" d="M64.9,164.6c-20.9,21-27,27.4-28,29.5c-1,2.2-1.3,3.5-1.3,7.4c0,4.1,0.2,5.1,1.4,7.4c1.8,3.5,6.1,7.3,9.5,8.5c4,1.3,9.9,0.8,13.4-1.1c1.9-1,13.5-12.3,41.2-40l38.5-38.5h-24H91.5L64.9,164.6z"/><path fill="#000000" d="M222.1,124c-8.1,8.3-9.5,10.8-9.5,17c0,5,1.4,8.4,4.9,11.8c3.6,3.6,6.8,4.9,12,4.8c4.8,0,7.6-1.1,11.2-4.2c4.8-4.1,6.7-12.1,4.3-18.4c-1-2.7-2.2-4.2-8.3-10.5c-4-4-7.3-7.2-7.5-7.2C229,117.2,225.8,120.3,222.1,124z"/></g></g></g>
</svg>